<!-- Generator: Adobe Illustrator 18.0.0, SVG Export Plug-In  -->
<svg version="1.1"
	 xmlns="http://www.w3.org/2000/svg" xmlns:xlink="http://www.w3.org/1999/xlink" xmlns:a="http://ns.adobe.com/AdobeSVGViewerExtensions/3.0/"
	 x="0px" y="0px" width="19px" height="24px" viewBox="0 0 19 24" enable-background="new 0 0 19 24" xml:space="preserve">
<defs>
</defs>
<g id="lock_1_">
	<path fill-rule="evenodd" clip-rule="evenodd" fill="#666666" d="M0,24V10.8h2.5V6.6C2.5,3,5.4,0,9.1,0h0.8c3.6,0,6.6,3,6.6,6.6
		v4.1H19V24H0z M8.9,17.2l-0.6,4.3h2.5l-0.6-4.3c0.6-0.2,1-0.8,1-1.5c0-0.9-0.7-1.7-1.7-1.7s-1.7,0.7-1.7,1.7
		C7.8,16.4,8.3,17,8.9,17.2z M14,7c0-2.5-2-4.6-4.5-4.6S5,4.5,5,7v3.7H14V7z"/>
</g>
</svg>
